<?xml version="1.0" encoding="UTF-8"?>
<svg id="_Слой_9_копия_4" data-name="Слой_9_копия_4" xmlns="http://www.w3.org/2000/svg" version="1.1" viewBox="0 0 2000 289.44">
  <!-- Generator: Adobe Illustrator 29.1.0, SVG Export Plug-In . SVG Version: 2.1.0 Build 142)  -->
  <defs>
    <style>
      .st0 {
        fill: #1c051a;
      }
    </style>
  </defs>
  <g id="_Слой_5__x28_копия5_x29_" data-name="Слой_5__x28_копия5_x29_">
    <g id="_Слой_4__x28_копия5_x29_" data-name="Слой_4__x28_копия5_x29_">
      <g>
        <path class="st0" d="M241.41,4.97v48.86h-115.11c-27.06,0-46.73,7.11-59.01,21.33-12.29,14.22-18.43,37.47-18.43,69.77s6.07,55.14,18.22,69.36c12.14,14.22,31.88,21.32,59.21,21.32h46.38c13.8,0,23.74-3.66,29.81-10.97,6.07-7.31,9.11-16.77,9.11-28.36s-2.83-20.08-8.49-26.29c-5.66-6.21-14.29-9.32-25.88-9.32h-62.11v-42.65h67.08c25.12,0,43.75,7.11,55.9,21.33,12.14,14.22,18.22,33.48,18.22,57.76,0,12.15-1.59,23.54-4.76,34.16-3.18,10.63-8.28,19.88-15.32,27.74s-16.01,14.08-26.92,18.63c-10.91,4.56-24.22,6.83-39.96,6.83h-43.06c-40.86,0-72.12-11.52-93.79-34.58C10.83,226.85,0,191.86,0,144.93S10.83,62.6,32.5,39.54C54.17,16.5,85.44,4.97,126.29,4.97h115.11Z"/>
        <path class="st0" d="M467.08,4.97c15.74,0,29.26,2.28,40.58,6.83,11.32,4.56,20.63,10.63,27.95,18.22,7.31,7.6,12.69,16.5,16.15,26.71,3.45,10.22,5.18,20.85,5.18,31.88,0,8.84-1.11,17.6-3.31,26.29-2.21,8.7-5.66,16.84-10.35,24.43-4.7,7.6-10.77,14.29-18.22,20.08-7.45,5.8-16.56,10.22-27.33,13.25l65.01,111.8h-54.24l-63.77-108.08h-72.88c-4.7,0-7.04,2.35-7.04,7.04v101.04h-48.86v-110.56c0-15.74,3.45-27.05,10.35-33.95,6.9-6.9,18.08-10.35,33.54-10.35h108.9c6.9,0,12.84-1.1,17.8-3.31,4.97-2.21,8.97-5.1,12.01-8.7,3.03-3.58,5.31-7.73,6.83-12.42,1.51-4.69,2.28-9.52,2.28-14.49,0-9.94-3.11-18.56-9.32-25.88-6.21-7.31-16.09-10.97-29.61-10.97h-153.21V4.97h151.55Z"/>
        <path class="st0" d="M643.89,284.47h-53.83l98.14-248.45c5.24-13.25,12.63-22.57,22.15-27.95,9.52-5.38,21.74-8.07,36.65-8.07s26.71,2.69,36.23,8.07c9.52,5.38,16.77,14.7,21.74,27.95l94.41,248.45h-54.25l-84.89-224.85c-2.48-6.35-7.04-9.52-13.67-9.52s-11.32,3.18-14.08,9.52l-88.61,224.85Z"/>
        <path class="st0" d="M939.54,4.97l84.89,224.85c2.48,6.35,7.04,9.52,13.66,9.52s10.9-3.17,13.67-9.52L1140.79,4.97h54.25l-98.55,248.45c-5.25,13.25-12.63,22.57-22.15,27.95-9.52,5.38-21.6,8.07-36.23,8.07-13.81,0-25.74-2.56-35.82-7.66-10.08-5.1-17.74-14.56-22.98-28.36L885.71,4.97h53.83Z"/>
        <path class="st0" d="M1289.44,4.97v279.5h-48.86V4.97h48.86Z"/>
        <path class="st0" d="M1515.11,4.97c40.85,0,72.11,11.59,93.79,34.78,21.67,23.19,32.51,58.38,32.51,105.59s-10.84,81.85-32.51,104.76c-21.68,22.92-52.94,34.37-93.79,34.37h-38.1c-40.86,0-72.12-11.45-93.79-34.37-21.67-22.91-32.5-57.83-32.5-104.76s10.83-82.4,32.5-105.59c21.67-23.19,52.93-34.78,93.79-34.78h38.1ZM1477.02,53.83c-27.06,0-46.73,7.18-59.01,21.53-12.29,14.36-18.43,37.68-18.43,69.98s6.07,55.07,18.22,69.15c12.14,14.08,31.88,21.12,59.21,21.12h38.1c26.77,0,46.31-7.1,58.59-21.32,12.28-14.21,18.43-37.33,18.43-69.36s-6.07-55.21-18.22-69.57c-12.15-14.35-31.75-21.53-58.8-21.53h-38.1Z"/>
        <path class="st0" d="M1751.55,284.47h-48.86V60.87c0-18.22,5.24-32.92,15.74-44.1,10.49-11.18,26.64-16.77,48.45-16.77,19.32,0,34.02,4.63,44.1,13.87,10.07,9.25,18.01,21.88,23.81,37.89l81.57,178.47c1.66,3.31,3.86,6.08,6.63,8.28,2.76,2.21,6.48,3.31,11.18,3.31,5.24,0,9.32-1.45,12.22-4.35,2.9-2.9,4.35-6.69,4.35-11.39V4.97h49.28v223.19c0,18.5-5.32,33.33-15.94,44.51-10.63,11.18-26.71,16.77-48.24,16.77-9.67,0-18.15-1.18-25.47-3.52-7.32-2.34-13.66-5.8-19.05-10.35-5.38-4.56-10.01-10-13.87-16.36-3.87-6.35-7.18-13.52-9.94-21.53l-81.57-178.47c-3.59-8-9.39-12.01-17.39-12.01-5.53,0-9.73,1.45-12.63,4.35s-4.35,6.83-4.35,11.8v221.12Z"/>
      </g>
    </g>
  </g>
  <metadata>
    <sfw xmlns="http://ns.adobe.com/SaveForWeb/1.0/">
      <slices/>
      <sliceSourceBounds x="2123.07" y="-957.62" width="2000" height="289.44" bottomLeftOrigin="true"/>
    </sfw>
  </metadata>
</svg>